# xmcd
#
# Track frame offsets:
#	150
#	11414
#	23419
#	34184
#	44035
#	55104
#	67892
#	80866
#	97456
#	109707
#	122891
#	135700
#	147188
#	158879
#
# Disc length: 2265 seconds
#
# Revision: 0
# Processed by: cddbd v1.5.1PL0 Copyright (c) Steve Scherf et al.
# Submitted via: dBpowerAMP V4.0
#
DISCID=c208d70e
DTITLE=JenneyLynn - A Tribute To Patsy Cline
DYEAR=2004
DGENRE=Country
TTITLE0=Crazy Arms
TTITLE1=Just Out Of Reach
TTITLE2=Leaving On Your Mind
TTITLE3=Walking After Midnight
TTITLE4=Your Cheating Heart
TTITLE5=When I get Through With You
TTITLE6=Blue
TTITLE7=Faded Love
TTITLE8=Crazy
TTITLE9=She's Got You
TTITLE10=Someday
TTITLE11=San Antonio
TTITLE12=Sweet Dreams
TTITLE13=Half As Much
EXTD=New Country Artist JenneyLynn from Kentucky
EXTT0=
EXTT1=
EXTT2=
EXTT3=
EXTT4=
EXTT5=
EXTT6=
EXTT7=
EXTT8=
EXTT9=
EXTT10=
EXTT11=
EXTT12=
EXTT13=
PLAYORDER=
